# xmcd
#
# Track frame offsets:
#	150
#	18185
#	37358
#	56212
#	75142
#	94458
#	115122
#	132738
#	155064
#	173234
#
# Disc length: 2565 seconds
#
# Revision: 1
# Processed by: cddbd v1.5.2PL0 Copyright (c) Steve Scherf et al.
# Submitted via: audiograbber 1.83.01
#
DISCID=870a030a
DTITLE=Marc Pouliot - Démo 2010
DYEAR=2010
DGENRE=Blues
TTITLE0=Rallum-donc tes yeux
TTITLE1=Une cigale
TTITLE2=Est-ce que tu m'aimes encore vraiment
TTITLE3=Une petite chanson
TTITLE4=À l'âge que j'ai
TTITLE5=J'ai pu d'sang dans tête
TTITLE6=Que dirais-tu
TTITLE7=Toi que j'aime tant
TTITLE8=Le Bonheur
TTITLE9=Je pense à toi
EXTD=Paroles et musique: Marc Pouliot\n(C) 2008-09-10\nmarc@marcpouliot.net\nww
EXTD=w.marcpouliot.net\nTél.: 418.654.1109, 418.580.1252\n\nSoumis à freedb par
EXTD=BigueNique@yahoo.ca\nhttp://radio.fiatlux.tk/\nradio@fiatlux.tk
EXTT0=
EXTT1=
EXTT2=
EXTT3=
EXTT4=
EXTT5=
EXTT6=
EXTT7=
EXTT8=
EXTT9=
PLAYORDER=
